<svg fill="none" xmlns="http://www.w3.org/2000/svg" viewBox="0 0 167 92">
  <path fill-rule="evenodd" clip-rule="evenodd" d="M46 83.25h83a7 7 0 100-14s-6-3.134-6-7 3.952-7 8.826-7H142a7 7 0 100-14h-22a7 7 0 100-14h40a7 7 0 100-14H62a7 7 0 100 14H22a7 7 0 100 14h25a7 7 0 110 14H7a7 7 0 100 14h39a7 7 0 100 14zm107-35a7 7 0 1014 0 7 7 0 00-14 0z" fill="#F3F7FF"/>
  <path fill-rule="evenodd" clip-rule="evenodd" d="M71.119 61.557A12.095 12.095 0 0071 63.25c0 6.627 5.373 12 12 12s12-5.373 12-12c0-.575-.04-1.14-.118-1.693H124V88.25a3 3 0 01-3 3H45a3 3 0 01-3-3V61.557h29.119z" fill="#fff"/>
  <path fill-rule="evenodd" clip-rule="evenodd" d="M96 61.25c0 7.18-5.82 13-13 13s-13-5.82-13-13c0-.233.006-.464.018-.693H42l9.56-28.268a3 3 0 012.842-2.039h57.196c1.286 0 2.429.82 2.842 2.039L124 60.557H95.982c.012.23.018.46.018.693z" fill="#fff"/>
  <path fill-rule="evenodd" clip-rule="evenodd" d="M94.098 62.205c0 5.547-4.969 11.045-11.098 11.045-6.129 0-11.098-5.498-11.098-11.045 0-.18.006-1.359.016-1.536H51l8.161-19.843c.352-.942 1.328-1.576 2.426-1.576h42.826c1.098 0 2.074.634 2.426 1.575L115 60.67H94.082c.01.177.016 1.356.016 1.536z" fill="#E8F0FE"/>
  <path d="M54.402 31.5h57.196c.75 0 1.417.479 1.657 1.19l9.495 28.072V87.25A1.75 1.75 0 01121 89H45a1.75 1.75 0 01-1.75-1.75V60.762l9.495-28.073a1.75 1.75 0 011.657-1.189z" stroke="#75A4FE" stroke-width="2.5" stroke-linejoin="round"/>
  <path d="M56 59h1.25c0-.69-.56-1.25-1.25-1.25V59zm0 2.5v1.25c.69 0 1.25-.56 1.25-1.25H56zm0 0h-1.25c0 .69.56 1.25 1.25 1.25V61.5zm13.263.08l.567-1.113-.567 1.114zm.034.028l-1.108.577 1.108-.578zm.002.002l-1.089.615 1.089-.615zm.054.206l-1.24.165 1.24-.165zm27.089 0l1.239.165-1.24-.166zm.054-.206l1.088.615.001-.002-1.089-.613zm.001-.002l-1.108-.578-.001.002 1.11.576zm.035-.027l.567 1.114-.567-1.114zm-2.212-1.202l-1.088-.615 1.088.615zm-.397 1.825l1.25-.005-1.25.005zm-22.052 0l1.25.005-1.25-.005zm-.396-1.825l1.088-.615-1.088.615zM56 59v-1.25c-.69 0-1.25.56-1.25 1.25H56zm-7.426-1.25a2.5 2.5 0 00-2.5 2.5h2.5v-2.5zm2.426 0h-2.426v2.5H51v-2.5zm2.5 2.5a2.5 2.5 0 00-2.5-2.5v2.5h2.5zm-2.5 2.5a2.5 2.5 0 002.5-2.5H51v2.5zm-2.426 0H51v-2.5h-2.426v2.5zm-2.5-2.5a2.5 2.5 0 002.5 2.5v-2.5h-2.5zM56 57.75a2.5 2.5 0 00-2.5 2.5H56v-2.5zm1.25 2.5V59h-2.5v1.25h2.5zm0 1.25v-1.25h-2.5v1.25h2.5zm-3.75-1.25a2.5 2.5 0 002.5 2.5v-2.5h-2.5zm1.25 0v1.25h2.5v-1.25h-2.5zm1.25 2.5v-2.5 2.5zm0 0v-2.5 2.5zm0 0h.001v-2.5 2.5zm.001 0v-2.5 2.5zm0 0h.001v-2.5 2.5zm.001 0h.001v-2.5 2.5zm.001 0h.001v-2.5 2.5zm.001 0h.001v-2.5 2.5zm.001 0h.002v-2.5h-.002v2.5zm.002 0h.001v-2.5h-.001v2.5zm.001 0h.002v-2.5h-.002v2.5zm.002 0h.001v-2.5h-.001v2.5zm.001 0h.002v-2.5h-.002v2.5zm.002 0h.002v-2.5h-.002v2.5zm.002 0h.002v-2.5h-.002v2.5zm.002 0h.002v-2.5h-.002v2.5zm.002 0h.003v-2.5h-.003v2.5zm.003 0h.002v-2.5h-.002v2.5zm.002 0h.003v-2.5h-.003v2.5zm.003 0h.002v-2.5h-.002v2.5zm.002 0h.003v-2.5h-.002v2.5zm.003 0h.003v-2.5h-.003v2.5zm.003 0h.003v-2.5h-.003v2.5zm.003 0h.004v-2.5h-.004v2.5zm.004 0h.003v-2.5h-.003v2.5zm.003 0h.003v-2.5h-.003v2.5zm.003 0h.004v-2.5h-.004v2.5zm.004 0h.004v-2.5h-.004v2.5zm.004 0h.004v-2.5h-.004v2.5zm.004 0h.004v-2.5h-.004v2.5zm.004 0h.004v-2.5h-.004v2.5zm.004 0h.004v-2.5h-.004v2.5zm.004 0h.005v-2.5h-.005v2.5zm.005 0h.004v-2.5h-.004v2.5zm.004 0h.005v-2.5h-.005v2.5zm.005 0h.005v-2.5h-.005v2.5zm.005 0h.005v-2.5h-.005v2.5zm.005 0h.005v-2.5h-.005v2.5zm.005 0h.005v-2.5H56.1v2.5zm.005 0h.005v-2.5h-.005v2.5zm.005 0h.006v-2.5h-.006v2.5zm.006 0h.005v-2.5h-.005v2.5zm.005 0h.006v-2.5h-.006v2.5zm.006 0h.005v-2.5h-.005v2.5zm.005 0h.006v-2.5h-.006v2.5zm.006 0h.006v-2.5h-.006v2.5zm.006 0h.007v-2.5h-.007v2.5zm.007 0h.006v-2.5h-.006v2.5zm.006 0h.006v-2.5h-.006v2.5zm.006 0h.007v-2.5h-.007v2.5zm.007 0h.007v-2.5h-.007v2.5zm.007 0h.006v-2.5h-.006v2.5zm.006 0h.007v-2.5h-.007v2.5zm.007 0h.007v-2.5h-.007v2.5zm.007 0h.007v-2.5h-.007v2.5zm.007 0h.008v-2.5h-.008v2.5zm.008 0h.007v-2.5h-.007v2.5zm.007 0h.008v-2.5h-.008v2.5zm.008 0h.007v-2.5h-.007v2.5zm.007 0h.008v-2.5h-.008v2.5zm.008 0h.008v-2.5h-.008v2.5zm.008 0h.008v-2.5h-.008v2.5zm.008 0h.008v-2.5h-.008v2.5zm.008 0h.008v-2.5h-.008v2.5zm.008 0h.009v-2.5h-.009v2.5zm.009 0h.008v-2.5h-.008v2.5zm.008 0h.009v-2.5h-.009v2.5zm.009 0h.009v-2.5h-.01v2.5zm.009 0h.008v-2.5h-.008v2.5zm.008 0h.01v-2.5h-.01v2.5zm.01 0h.008v-2.5h-.009v2.5zm.008 0h.01v-2.5h-.01v2.5zm.01 0h.009v-2.5h-.01v2.5zm.009 0h.01v-2.5h-.01v2.5zm.01 0h.01v-2.5h-.01v2.5zm.01 0h.009v-2.5h-.01v2.5zm.009 0h.01v-2.5h-.01v2.5zm.01 0h.01v-2.5h-.01v2.5zm.01 0h.01v-2.5h-.01v2.5zm.01 0h.01v-2.5h-.01v2.5zm.01 0h.01v-2.5h-.01v2.5zm.01 0h.01v-2.5h-.01v2.5zm.01 0h.01v-2.5h-.01v2.5zm.01 0h.011v-2.5h-.01v2.5zm.011 0h.011v-2.5h-.01v2.5zm.011 0h.011v-2.5h-.01v2.5zm.011 0h.011v-2.5h-.01v2.5zm.011 0h.011v-2.5h-.01v2.5zm.011 0h.011v-2.5h-.01v2.5zm.011 0h.012v-2.5h-.012v2.5zm.012 0h.011v-2.5h-.011v2.5zm.011 0h.012v-2.5h-.012v2.5zm.012 0h.011v-2.5h-.011v2.5zm.011 0h.012v-2.5h-.012v2.5zm.012 0h.012v-2.5h-.012v2.5zm.012 0h.012v-2.5h-.012v2.5zm.012 0h.012v-2.5h-.012v2.5zm.012 0h.012v-2.5h-.012v2.5zm.012 0h.013v-2.5h-.013v2.5zm.013 0h.012v-2.5h-.012v2.5zm.012 0h.013v-2.5h-.013v2.5zm.013 0h.012v-2.5h-.012v2.5zm.012 0h.013v-2.5h-.013v2.5zm.013 0h.013v-2.5h-.013v2.5zm.013 0h.013v-2.5h-.013v2.5zm.013 0h.013v-2.5h-.013v2.5zm.013 0h.014v-2.5h-.014v2.5zm.014 0h.013v-2.5h-.013v2.5zm.013 0h.013v-2.5h-.013v2.5zm.013 0h.014v-2.5h-.014v2.5zm.014 0h.014v-2.5h-.014v2.5zm.014 0h.013v-2.5h-.013v2.5zm.013 0h.014v-2.5h-.014v2.5zm.014 0h.014v-2.5h-.014v2.5zm.014 0h.014v-2.5h-.014v2.5zm.014 0h.015v-2.5h-.014v2.5zm.015 0h.014v-2.5h-.014v2.5zm.014 0h.014v-2.5h-.014v2.5zm.014 0h.015v-2.5h-.014v2.5zm.015 0h.015v-2.5h-.015v2.5zm.015 0h.015v-2.5h-.015v2.5zm.015 0h.014v-2.5h-.014v2.5zm.014 0h.015v-2.5h-.015v2.5zm.015 0h.016v-2.5h-.016v2.5zm.016 0h.015v-2.5h-.015v2.5zm.015 0h.015v-2.5H57v2.5zm.015 0h.015v-2.5h-.015v2.5zm.015 0h.016v-2.5h-.016v2.5zm.016 0h.016v-2.5h-.016v2.5zm.016 0h.015v-2.5h-.015v2.5zm.015 0h.016v-2.5h-.016v2.5zm.016 0h.016v-2.5h-.016v2.5zm.016 0h.016v-2.5h-.016v2.5zm.016 0h.017v-2.5h-.017v2.5zm.017 0h.016v-2.5h-.016v2.5zm.016 0h.016v-2.5h-.016v2.5zm.016 0h.017v-2.5h-.017v2.5zm.017 0h.016v-2.5h-.016v2.5zm.016 0h.017v-2.5h-.017v2.5zm.017 0h.017v-2.5h-.017v2.5zm.017 0h.017v-2.5h-.017v2.5zm.017 0h.017v-2.5h-.017v2.5zm.017 0h.017v-2.5h-.017v2.5zm.017 0h.017v-2.5h-.017v2.5zm.017 0h.017v-2.5h-.017v2.5zm.017 0h.018v-2.5h-.018v2.5zm.018 0h.017v-2.5h-.017v2.5zm.017 0h.018v-2.5h-.018v2.5zm.018 0h.017v-2.5h-.017v2.5zm.017 0h.018v-2.5h-.017v2.5zm.018 0h.018v-2.5h-.018v2.5zm.018 0h.018v-2.5h-.018v2.5zm.018 0h.018v-2.5h-.018v2.5zm.018 0h.019v-2.5h-.019v2.5zm.019 0h.018v-2.5h-.018v2.5zm.018 0h.018v-2.5h-.018v2.5zm.018 0h.019v-2.5h-.019v2.5zm.019 0h.019v-2.5h-.02v2.5zm.019 0h.018v-2.5h-.019v2.5zm.018 0h.02v-2.5h-.02v2.5zm.02 0h.018v-2.5h-.019v2.5zm.018 0h.02v-2.5h-.02v2.5zm.02 0h.018v-2.5h-.019v2.5zm.018 0h.02v-2.5h-.02v2.5zm.02 0h.019v-2.5h-.02v2.5zm.019 0h.02v-2.5h-.02v2.5zm.02 0h.019v-2.5h-.02v2.5zm.019 0h.02v-2.5h-.02v2.5zm.02 0h.019v-2.5h-.02v2.5zm.019 0h.02v-2.5h-.02v2.5zm.02 0h.02v-2.5h-.02v2.5zm.02 0h.02v-2.5h-.02v2.5zm.02 0h.02v-2.5h-.02v2.5zm.02 0h.02v-2.5h-.02v2.5zm.02 0h.02v-2.5h-.02v2.5zm.02 0h.02v-2.5h-.02v2.5zm.02 0h.021v-2.5h-.02v2.5zm.021 0h.02v-2.5h-.02v2.5zm.02 0h.022v-2.5h-.021v2.5zm.022 0h.02v-2.5h-.02v2.5zm.02 0h.021v-2.5h-.02v2.5zm.021 0h.021v-2.5h-.02v2.5zm.021 0h.021v-2.5h-.02v2.5zm.021 0h.021v-2.5h-.02v2.5zm.021 0h.022v-2.5h-.022v2.5zm.022 0h.02v-2.5h-.02v2.5zm.02 0h.022v-2.5h-.021v2.5zm.022 0h.022v-2.5h-.022v2.5zm.022 0h.021v-2.5h-.021v2.5zm.021 0h.022v-2.5h-.022v2.5zm.022 0h.022v-2.5h-.022v2.5zm.022 0h.022v-2.5h-.022v2.5zm.022 0h.022v-2.5h-.022v2.5zm.022 0h.022v-2.5h-.022v2.5zm.022 0h.022v-2.5h-.022v2.5zm.022 0h.023v-2.5h-.023v2.5zm.023 0h.022v-2.5h-.023v2.5zm.022 0h.022v-2.5h-.022v2.5zm.022 0h.023v-2.5h-.023v2.5zm.023 0h.022v-2.5h-.022v2.5zm.022 0h.023v-2.5h-.023v2.5zm.023 0h.023v-2.5h-.023v2.5zm.023 0h.023v-2.5h-.023v2.5zm.023 0h.023v-2.5h-.023v2.5zm.023 0h.023v-2.5h-.023v2.5zm.023 0h.023v-2.5h-.023v2.5zm.023 0h.023v-2.5h-.023v2.5zm.023 0h.024v-2.5h-.024v2.5zm.024 0h.023v-2.5h-.023v2.5zm.023 0h.024v-2.5h-.024v2.5zm.024 0h.023v-2.5h-.023v2.5zm.023 0h.024v-2.5h-.024v2.5zm.024 0h.024v-2.5h-.024v2.5zm.024 0h.024v-2.5h-.024v2.5zm.024 0h.024v-2.5h-.024v2.5zm.024 0h.024v-2.5h-.024v2.5zm.024 0h.024v-2.5h-.024v2.5zm.024 0h.024v-2.5h-.024v2.5zm.024 0h.024v-2.5h-.024v2.5zm.024 0h.025v-2.5h-.025v2.5zm.025 0h.024v-2.5h-.024v2.5zm.024 0h.025v-2.5h-.025v2.5zm.025 0h.024v-2.5h-.024v2.5zm.024 0H59v-2.5h-.025v2.5zm.025 0h.025v-2.5H59v2.5zm.025 0h.025v-2.5h-.025v2.5zm.025 0h.025v-2.5h-.025v2.5zm.025 0h.025v-2.5h-.025v2.5zm.025 0h.025v-2.5H59.1v2.5zm.025 0h.026v-2.5h-.026v2.5zm.026 0h.025v-2.5h-.025v2.5zm.025 0h.025v-2.5h-.025v2.5zm.025 0h.026v-2.5H59.2v2.5zm.026 0h.025v-2.5h-.025v2.5zm.025 0h.026v-2.5h-.026v2.5zm.026 0h.026v-2.5h-.026v2.5zm.026 0h.026v-2.5h-.026v2.5zm.026 0h.026v-2.5h-.026v2.5zm.026 0h.026v-2.5h-.026v2.5zm.026 0h.026v-2.5h-.026v2.5zm.026 0h.026v-2.5h-.026v2.5zm.026 0h.026v-2.5h-.026v2.5zm.026 0h.026v-2.5h-.026v2.5zm.026 0h.027v-2.5h-.027v2.5zm.027 0h.026v-2.5h-.026v2.5zm.026 0h.027v-2.5h-.027v2.5zm.027 0h.026v-2.5h-.026v2.5zm.026 0h.027v-2.5h-.027v2.5zm.027 0h.027v-2.5h-.027v2.5zm.027 0h.027v-2.5h-.027v2.5zm.027 0h.027v-2.5h-.027v2.5zm.027 0h.027v-2.5h-.027v2.5zm.027 0h.027v-2.5h-.027v2.5zm.027 0h.027v-2.5h-.027v2.5zm.027 0h.027v-2.5h-.027v2.5zm.027 0h.028v-2.5h-.028v2.5zm.028 0h.027v-2.5h-.027v2.5zm.027 0h.028v-2.5h-.028v2.5zm.028 0h.027v-2.5h-.027v2.5zm.027 0h.028v-2.5h-.028v2.5zm.028 0h.028v-2.5h-.028v2.5zm.028 0H60v-2.5h-.028v2.5zm.028 0h.028v-2.5H60v2.5zm.028 0h.027v-2.5h-.027v2.5zm.027 0h.029v-2.5h-.029v2.5zm.029 0h.028v-2.5h-.029v2.5zm.028 0h.028v-2.5h-.028v2.5zm.028 0h.028v-2.5h-.028v2.5zm.028 0h.029v-2.5h-.029v2.5zm.029 0h.028v-2.5h-.029v2.5zm.028 0h.028v-2.5h-.028v2.5zm.028 0h.029v-2.5h-.029v2.5zm.029 0h.029v-2.5h-.029v2.5zm.029 0h.028v-2.5h-.028v2.5zm.028 0h.03v-2.5h-.03v2.5zm.03 0h.028v-2.5h-.029v2.5zm.028 0h.029v-2.5h-.029v2.5zm.029 0h.029v-2.5h-.029v2.5zm.029 0h.03v-2.5h-.03v2.5zm.03 0h.028v-2.5h-.029v2.5zm.028 0h.03v-2.5h-.03v2.5zm.03 0h.029v-2.5h-.03v2.5zm.029 0h.03v-2.5h-.03v2.5zm.03 0h.029v-2.5h-.03v2.5zm.029 0h.03v-2.5h-.03v2.5zm.03 0h.029v-2.5h-.03v2.5zm.029 0h.03v-2.5h-.03v2.5zm.03 0h.03v-2.5h-.03v2.5zm.03 0h.03v-2.5h-.03v2.5zm.03 0h.029v-2.5h-.03v2.5zm.029 0h.03v-2.5h-.03v2.5zm.03 0h.03v-2.5h-.03v2.5zm.03 0h.03v-2.5h-.03v2.5zm.03 0h.03v-2.5h-.03v2.5zm.03 0h.03v-2.5h-.03v2.5zm.03 0h.03v-2.5h-.03v2.5zm.03 0h.031v-2.5h-.03v2.5zm.031 0h.03v-2.5h-.03v2.5zm.03 0h.031v-2.5h-.03v2.5zm.031 0h.03v-2.5h-.03v2.5zm.03 0h.031v-2.5h-.03v2.5zm.031 0h.031v-2.5h-.03v2.5zm.031 0h.03v-2.5h-.03v2.5zm.03 0h.032v-2.5h-.031v2.5zm.032 0h.03v-2.5h-.03v2.5zm.03 0h.032v-2.5h-.031v2.5zm.032 0h.03v-2.5h-.03v2.5zm.03 0h.032v-2.5h-.031v2.5zm.032 0h.031v-2.5h-.031v2.5zm.031 0h.031v-2.5h-.031v2.5zm.031 0h.032v-2.5h-.032v2.5zm.032 0h.03v-2.5h-.03v2.5zm.03 0h.032v-2.5h-.031v2.5zm.032 0h.032v-2.5h-.032v2.5zm.032 0h.032v-2.5h-.032v2.5zm.032 0h.031v-2.5h-.031v2.5zm.031 0h.032v-2.5h-.032v2.5zm.032 0h.032v-2.5h-.032v2.5zm.032 0h.032v-2.5h-.032v2.5zm.032 0h.031v-2.5h-.032v2.5zm.031 0h.032v-2.5h-.032v2.5zm.032 0h.032v-2.5h-.032v2.5zm.032 0h.032v-2.5h-.032v2.5zm.032 0h.033v-2.5h-.032v2.5zm.033 0h.032v-2.5h-.032v2.5zm.032 0h.032v-2.5H61.9v2.5zm.032 0h.033v-2.5h-.033v2.5zm.033 0h.032v-2.5h-.032v2.5zm.032 0h.032v-2.5h-.032v2.5zm.032 0h.033v-2.5h-.033v2.5zm.033 0h.032v-2.5h-.032v2.5zm.032 0h.033v-2.5h-.032v2.5zm.033 0h.033v-2.5h-.033v2.5zm.033 0h.033v-2.5h-.033v2.5zm.033 0h.032v-2.5h-.032v2.5zm.032 0h.033v-2.5h-.032v2.5zm.033 0h.033v-2.5h-.033v2.5zm.033 0h.033v-2.5h-.033v2.5zm.033 0h.033v-2.5h-.033v2.5zm.033 0h.034v-2.5h-.034v2.5zm.034 0h.033v-2.5h-.033v2.5zm.033 0h.033v-2.5h-.033v2.5zm.033 0h.033v-2.5h-.033v2.5zm.033 0h.034v-2.5h-.034v2.5zm.034 0h.033v-2.5h-.033v2.5zm.033 0h.034v-2.5h-.034v2.5zm.034 0h.033v-2.5h-.033v2.5zm.033 0h.034v-2.5h-.034v2.5zm.034 0h.034v-2.5h-.034v2.5zm.034 0h.033v-2.5h-.033v2.5zm.033 0h.034v-2.5h-.034v2.5zm.034 0h.034v-2.5h-.034v2.5zm.034 0h.034v-2.5h-.034v2.5zm.034 0h.034v-2.5h-.034v2.5zm.034 0h.034v-2.5h-.034v2.5zm.034 0h.034v-2.5h-.034v2.5zm.034 0h.034v-2.5h-.034v2.5zm.034 0h.034v-2.5h-.034v2.5zm.034 0h.034v-2.5h-.034v2.5zm.034 0h.035v-2.5h-.035v2.5zm.035 0h.034v-2.5h-.034v2.5zm.034 0h.034v-2.5H63.1v2.5zm.034 0h.035v-2.5h-.035v2.5zm.035 0h.034v-2.5h-.034v2.5zm.034 0h.035v-2.5h-.035v2.5zm.035 0h.034v-2.5h-.034v2.5zm.034 0h.035v-2.5h-.035v2.5zm.035 0h.035v-2.5h-.035v2.5zm.035 0h.035v-2.5h-.035v2.5zm.035 0h.034v-2.5h-.034v2.5zm.034 0h.035v-2.5h-.035v2.5zm.035 0h.035v-2.5h-.035v2.5zm.035 0h.035v-2.5h-.035v2.5zm.035 0h.035v-2.5h-.035v2.5zm.035 0h.035v-2.5h-.035v2.5zm.035 0h.035v-2.5h-.035v2.5zm.035 0h.036v-2.5h-.035v2.5zm.036 0h.035v-2.5h-.035v2.5zm.035 0h.035v-2.5h-.035v2.5zm.035 0h.035v-2.5h-.035v2.5zm.035 0h.036v-2.5h-.035v2.5zm.036 0h.035v-2.5h-.035v2.5zm.035 0h.036v-2.5h-.036v2.5zm.036 0h.035v-2.5h-.035v2.5zm.035 0h.036v-2.5h-.036v2.5zm.036 0h.036v-2.5h-.036v2.5zm.036 0h.035v-2.5h-.035v2.5zm.035 0h.036v-2.5h-.036v2.5zm.036 0h.036v-2.5h-.036v2.5zm.036 0h.036v-2.5h-.036v2.5zm.036 0h.036v-2.5h-.036v2.5zm.036 0h.035v-2.5h-.035v2.5zm.035 0h.037v-2.5h-.037v2.5zm.037 0h.035v-2.5h-.035v2.5zm.035 0h.037v-2.5h-.037v2.5zm.037 0h.036v-2.5h-.036v2.5zm.036 0h.036v-2.5h-.036v2.5zm.036 0h.036v-2.5h-.036v2.5zm.036 0h.036v-2.5h-.036v2.5zm.036 0h.037v-2.5h-.037v2.5zm.037 0h.036v-2.5h-.036v2.5zm.036 0h.037v-2.5h-.037v2.5zm.037 0h.036v-2.5h-.036v2.5zm.036 0h.036v-2.5h-.036v2.5zm.036 0h.037v-2.5h-.037v2.5zm.037 0h.037v-2.5h-.037v2.5zm.037 0h.036v-2.5h-.036v2.5zm.036 0h.037v-2.5h-.037v2.5zm.037 0h.037v-2.5h-.037v2.5zm.037 0h.036v-2.5h-.036v2.5zm.036 0h.037v-2.5h-.037v2.5zm.037 0h.037v-2.5h-.037v2.5zm.037 0h.037v-2.5h-.037v2.5zm.037 0h.037v-2.5h-.037v2.5zm.037 0h.037v-2.5h-.037v2.5zm.037 0h.037v-2.5h-.037v2.5zm.037 0h.037v-2.5h-.037v2.5zm.037 0h.037v-2.5h-.037v2.5zm.037 0h.037v-2.5h-.037v2.5zm.037 0h.037v-2.5h-.037v2.5zm.037 0h.037v-2.5h-.037v2.5zm.037 0h.038v-2.5h-.038v2.5zm.038 0h.037v-2.5h-.037v2.5zm.037 0h.038v-2.5h-.038v2.5zm.038 0h.037v-2.5h-.037v2.5zm.037 0h.037v-2.5h-.037v2.5zm.037 0h.038v-2.5h-.038v2.5zm.038 0h.037v-2.5h-.037v2.5zm.037 0h.038v-2.5h-.038v2.5zm.038 0h.037v-2.5h-.037v2.5zm.037 0h.038v-2.5h-.038v2.5zm.038 0h.038v-2.5h-.038v2.5zm.038 0h.037v-2.5h-.037v2.5zm.037 0h.038v-2.5h-.038v2.5zm.038 0h.038v-2.5h-.038v2.5zm.038 0h.038v-2.5h-.038v2.5zm.038 0h.038v-2.5h-.038v2.5zm.038 0h.038v-2.5h-.038v2.5zm.038 0h.038v-2.5h-.038v2.5zm.038 0h.037v-2.5h-.037v2.5zm.037 0h.039v-2.5h-.038v2.5zm.039 0h.038v-2.5h-.038v2.5zm.038 0h.038v-2.5h-.038v2.5zm.038 0h.038v-2.5h-.038v2.5zm.038 0h.038v-2.5h-.038v2.5zm.038 0h.038v-2.5h-.038v2.5zm.038 0h.038v-2.5h-.038v2.5zm.038 0h.039v-2.5h-.039v2.5zm.039 0h.038v-2.5h-.038v2.5zm.038 0h.038v-2.5h-.038v2.5zm.038 0h.039v-2.5h-.039v2.5zm.039 0h.038v-2.5h-.038v2.5zm.038 0h.039v-2.5h-.039v2.5zm.039 0h.038v-2.5h-.038v2.5zm.038 0h.039v-2.5h-.039v2.5zm.039 0h.038v-2.5h-.038v2.5zm.038 0h.039v-2.5h-.039v2.5zm.039 0h.038v-2.5h-.038v2.5zm.038 0h.039v-2.5h-.039v2.5zm.039 0h.039v-2.5h-.039v2.5zm.039 0h.038v-2.5h-.038v2.5zm.038 0h.04v-2.5h-.04v2.5zm.04 0h.038v-2.5h-.039v2.5zm.038 0h.039v-2.5h-.04v2.5zm.039 0h.039v-2.5h-.04v2.5zm.039 0h.038v-2.5h-.038v2.5zm.038 0h.04v-2.5h-.04v2.5zm.04 0h.038v-2.5h-.039v2.5zm.038 0h.04v-2.5h-.04v2.5zm.04 0h.038v-2.5h-.039v2.5zm.038 0h.04v-2.5h-.04v2.5zm.04 0h.038v-2.5h-.039v2.5zm.038 0h.04v-2.5h-.04v2.5zm.04 0h.038v-2.5h-.039v2.5zm.038 0h.04v-2.5h-.04v2.5zm.04 0h.039v-2.5h-.04v2.5zm.039 0h.04v-2.5h-.04v2.5zm.04 0h.038v-2.5h-.039v2.5zm.038 0h.04v-2.5h-.04v2.5zm.04 0h.039v-2.5h-.04v2.5zm.039 0h.04v-2.5h-.04v2.5zm.04 0h.038v-2.5h-.039v2.5zm.038 0h.04v-2.5h-.04v2.5zm.04 0h.04v-2.5h-.04v2.5zm.04 0h.039v-2.5h-.04v2.5zm.039 0h.04v-2.5h-.04v2.5zm.04 0h.039v-2.5h-.04v2.5zm.039 0h.04v-2.5h-.04v2.5zm.04 0h.039v-2.5h-.04v2.5zm.039 0h.04v-2.5h-.04v2.5zm.04 0h.039v-2.5h-.04v2.5zm.039 0h.04v-2.5h-.04v2.5zm.04 0h.04v-2.5h-.04v2.5zm.04 0h.039v-2.5h-.04v2.5zm.039 0h.04v-2.5h-.04v2.5zm.04 0h.04v-2.5h-.04v2.5zm.04 0h.039v-2.5h-.04v2.5zm.039 0h.04v-2.5h-.04v2.5zm.04 0h.04v-2.5h-.04v2.5zm.04 0h.04v-2.5h-.04v2.5zm.04 0h.04v-2.5h-.04v2.5zm.04 0h.04v-2.5h-.04v2.5zm.04 0h.039v-2.5h-.04v2.5zm.039 0h.04v-2.5h-.04v2.5zm.04 0h.04v-2.5h-.04v2.5zm.04 0h.04v-2.5h-.04v2.5zm.04 0h.04v-2.5h-.04v2.5zm.04 0h.04v-2.5h-.04v2.5zm.04 0h.04v-2.5h-.04v2.5zm.04 0h.04v-2.5h-.04v2.5zm.04 0h.04v-2.5h-.04v2.5zm.04 0c.184 0 .124.033-.05-.055l1.135-2.228c-.264-.134-.615-.217-1.085-.217v2.5zm-.05-.055c-.017-.01-.116-.059-.227-.156a1.217 1.217 0 01-.191-.21c-.056-.078-.09-.149-.088-.144l2.217-1.155a1.28 1.28 0 00-.576-.563l-1.134 2.228zm-.506-.51v.001l.001.002.004.008.016.029 2.177-1.23.014.027.005.008-2.217 1.155zm.021.04a.938.938 0 01-.083-.193c-.012-.038-.014-.058-.013-.05l2.478-.332a1.815 1.815 0 00-.205-.655l-2.177 1.23zm-.096-.244c.004.031.007.082.007.269h2.5c0-.167 0-.38-.03-.6l-2.477.331zm.007.269c0 8.062 6.67 14.5 14.776 14.5v-2.5c-6.78 0-12.276-5.373-12.276-12h-2.5zm14.776 14.5c8.106 0 14.776-6.438 14.776-14.5h-2.5c0 6.627-5.495 12-12.276 12v2.5zm14.776-14.5c0-.187.004-.238.008-.269l-2.478-.331c-.03.22-.03.433-.03.6h2.5zm.008-.269c0-.007-.001.013-.013.051a.944.944 0 01-.084.193l-2.176-1.23a1.811 1.811 0 00-.205.655l2.478.331zm-.096.242a1.15 1.15 0 00.016-.029l.004-.007.002-.004-2.22-1.151a.451.451 0 01.02-.036l2.178 1.227zm.02-.038a1.219 1.219 0 01-.28.354c-.11.097-.209.147-.226.156l-1.134-2.228a1.279 1.279 0 00-.576.563l2.217 1.155zm-.506.51c-.173.088-.233.055-.05.055v-2.5c-.47 0-.82.083-1.084.217l1.134 2.228zm-.05.055H122v-2.5H97.05v2.5zm24.951 0a2.5 2.5 0 002.5-2.5H122v2.5zm2.5-2.5a2.5 2.5 0 00-2.5-2.5v2.5h2.5zm-2.5-2.5H97.05v2.5H122v-2.5zm-24.95 0c-1.602 0-3.034.627-3.818 2.014l2.176 1.23c.232-.41.698-.744 1.642-.744v-2.5zm-3.818 2.014c-.58 1.025-.56 2.12-.559 2.445l2.5-.01c-.001-.328.013-.812.235-1.204l-2.176-1.231zm-.559 2.445v.041h2.5v-.05l-2.5.009zm0 .041c0 5.194-4.324 9.5-9.776 9.5v2.5c6.781 0 12.276-5.374 12.276-12h-2.5zm-9.776 9.5c-5.452 0-9.776-4.306-9.776-9.5h-2.5c0 6.626 5.495 12 12.276 12v-2.5zm-9.776-9.5v-.041l-2.5-.01v.051h2.5zm0-.041c.002-.325.021-1.42-.558-2.445l-2.176 1.23c.222.393.236.877.234 1.205l2.5.01zm-.558-2.445c-.784-1.387-2.217-2.014-3.818-2.014v2.5c.944 0 1.41.334 1.642.745l2.176-1.231zm-3.818-2.014h-.04v2.5h.04v-2.5zm-.04 0h-.04v2.5h.04v-2.5zm-.04 0h-.04v2.5h.04v-2.5zm-.04 0h-.04v2.5h.04v-2.5zm-.04 0h-.04v2.5h.04v-2.5zm-.04 0h-.04v2.5h.04v-2.5zm-.04 0h-.04v2.5h.04v-2.5zm-.04 0h-.04v2.5h.04v-2.5zm-.04 0h-.04v2.5h.04v-2.5zm-.04 0h-.04v2.5h.04v-2.5zm-.04 0h-.04v2.5h.04v-2.5zm-.04 0h-.04v2.5h.04v-2.5zm-.04 0h-.04v2.5h.04v-2.5zm-.04 0h-.039v2.5h.04v-2.5zm-.039 0h-.04v2.5h.04v-2.5zm-.04 0h-.04v2.5h.04v-2.5zm-.04 0h-.04v2.5h.04v-2.5zm-.04 0h-.039v2.5h.04v-2.5zm-.039 0h-.04v2.5h.04v-2.5zm-.04 0h-.04v2.5h.04v-2.5zm-.04 0h-.039v2.5h.04v-2.5zm-.039 0h-.04v2.5h.04v-2.5zm-.04 0h-.039v2.5h.04v-2.5zm-.039 0h-.04v2.5h.04v-2.5zm-.04 0h-.039v2.5h.04v-2.5zm-.039 0h-.04v2.5h.04v-2.5zm-.04 0h-.039v2.5h.04v-2.5zm-.039 0h-.04v2.5h.04v-2.5zm-.04 0h-.038v2.5h.039v-2.5zm-.038 0h-.04v2.5h.04v-2.5zm-.04 0h-.04v2.5h.04v-2.5zm-.04 0h-.038v2.5h.039v-2.5zm-.038 0h-.04v2.5h.04v-2.5zm-.04 0h-.039v2.5h.04v-2.5zm-.039 0h-.04v2.5h.04v-2.5zm-.04 0h-.038v2.5h.039v-2.5zm-.038 0h-.04v2.5h.04v-2.5zm-.04 0h-.039v2.5h.04v-2.5zm-.039 0H67.2v2.5h.04v-2.5zm-.039 0h-.039v2.5h.04v-2.5zm-.039 0h-.039v2.5h.04v-2.5zm-.039 0h-.039v2.5h.04v-2.5zm-.039 0h-.039v2.5h.04v-2.5zm-.039 0h-.039v2.5h.04v-2.5zm-.039 0h-.039v2.5h.04v-2.5zm-.039 0h-.038v2.5h.038v-2.5zm-.038 0h-.04v2.5h.04v-2.5zm-.04 0h-.038v2.5h.039v-2.5zm-.038 0h-.039v2.5h.039v-2.5zm-.039 0h-.039v2.5h.04v-2.5zm-.039 0h-.038v2.5h.038v-2.5zm-.038 0h-.039v2.5h.039v-2.5zm-.039 0h-.039v2.5h.039v-2.5zm-.039 0h-.038v2.5h.038v-2.5zm-.038 0h-.039v2.5h.039v-2.5zm-.039 0h-.038v2.5h.038v-2.5zm-.038 0h-.039v2.5h.039v-2.5zm-.039 0h-.038v2.5h.038v-2.5zm-.038 0h-.039v2.5h.039v-2.5zm-.039 0h-.038v2.5h.038v-2.5zm-.038 0h-.039v2.5h.039v-2.5zm-.039 0h-.038v2.5h.038v-2.5zm-.038 0h-.038v2.5h.038v-2.5zm-.038 0h-.039v2.5h.039v-2.5zm-.039 0h-.038v2.5h.038v-2.5zm-.038 0h-.038v2.5h.038v-2.5zm-.038 0h-.038v2.5h.038v-2.5zm-.038 0h-.038v2.5h.038v-2.5zm-.038 0h-.038v2.5h.038v-2.5zm-.038 0h-.038v2.5h.038v-2.5zm-.038 0h-.038v2.5h.038v-2.5zm-.038 0h-.038v2.5h.037v-2.5zm-.038 0h-.038v2.5h.038v-2.5zm-.038 0h-.038v2.5h.038v-2.5zm-.038 0h-.038v2.5h.038v-2.5zm-.038 0h-.038v2.5h.038v-2.5zm-.038 0h-.038v2.5h.038v-2.5zm-.038 0h-.038v2.5h.038v-2.5zm-.038 0h-.037v2.5h.037v-2.5zm-.037 0h-.038v2.5h.038v-2.5zm-.038 0h-.038v2.5h.038v-2.5zm-.038 0h-.037v2.5h.037v-2.5zm-.037 0h-.038v2.5h.038v-2.5zm-.038 0h-.037v2.5h.037v-2.5zm-.037 0h-.038v2.5h.038v-2.5zm-.038 0h-.037v2.5h.037v-2.5zm-.037 0h-.037v2.5h.037v-2.5zm-.037 0h-.038v2.5h.038v-2.5zm-.038 0h-.037v2.5h.037v-2.5zm-.037 0h-.038v2.5h.038v-2.5zm-.038 0h-.037v2.5h.037v-2.5zm-.037 0h-.037v2.5h.037v-2.5zm-.037 0h-.037v2.5h.037v-2.5zm-.037 0h-.037v2.5h.037v-2.5zm-.037 0h-.037v2.5h.037v-2.5zm-.037 0h-.037v2.5h.037v-2.5zm-.037 0h-.037v2.5h.037v-2.5zm-.037 0h-.037v2.5h.037v-2.5zm-.037 0h-.037v2.5h.037v-2.5zm-.037 0h-.037v2.5h.037v-2.5zm-.037 0h-.037v2.5h.037v-2.5zm-.037 0h-.036v2.5h.036v-2.5zm-.036 0h-.037v2.5h.037v-2.5zm-.037 0h-.037v2.5h.037v-2.5zm-.037 0h-.036v2.5h.036v-2.5zm-.036 0h-.037v2.5h.037v-2.5zm-.037 0h-.037v2.5h.037v-2.5zm-.037 0h-.036v2.5h.036v-2.5zm-.036 0h-.036v2.5h.036v-2.5zm-.036 0h-.037v2.5h.037v-2.5zm-.037 0h-.036v2.5h.036v-2.5zm-.036 0h-.037v2.5h.037v-2.5zm-.037 0h-.036v2.5h.036v-2.5zm-.036 0h-.036v2.5h.036v-2.5zm-.036 0h-.036v2.5h.036v-2.5zm-.036 0h-.036v2.5h.036v-2.5zm-.036 0h-.037v2.5h.037v-2.5zm-.037 0h-.035v2.5h.035v-2.5zm-.035 0h-.037v2.5h.037v-2.5zm-.037 0h-.035v2.5h.035v-2.5zm-.035 0h-.036v2.5h.036v-2.5zm-.036 0h-.036v2.5h.036v-2.5zm-.036 0h-.036v2.5h.036v-2.5zm-.036 0h-.036v2.5h.036v-2.5zm-.036 0h-.035v2.5h.035v-2.5zm-.035 0h-.036v2.5h.036v-2.5zm-.036 0h-.036v2.5h.036v-2.5zm-.036 0h-.035v2.5h.035v-2.5zm-.035 0h-.036v2.5h.036v-2.5zm-.036 0h-.035v2.5h.035v-2.5zm-.035 0h-.035v2.5h.035v-2.5zm-.035 0h-.036v2.5h.035v-2.5zm-.036 0h-.035v2.5h.035v-2.5zm-.035 0h-.035v2.5h.035v-2.5zm-.035 0h-.035v2.5h.035v-2.5zm-.035 0h-.036v2.5h.035v-2.5zm-.036 0h-.035v2.5h.035v-2.5zm-.035 0h-.035v2.5h.035v-2.5zm-.035 0h-.035v2.5h.035v-2.5zm-.035 0h-.035v2.5h.035v-2.5zm-.035 0h-.035v2.5h.035v-2.5zm-.035 0h-.034v2.5h.034v-2.5zm-.034 0h-.035v2.5h.035v-2.5zm-.035 0h-.035v2.5h.035v-2.5zm-.035 0h-.035v2.5h.035v-2.5zm-.035 0h-.034v2.5h.034v-2.5zm-.034 0h-.035v2.5h.035v-2.5zm-.035 0h-.034v2.5h.034v-2.5zm-.034 0h-.035v2.5h.035v-2.5zm-.035 0H63.1v2.5h.034v-2.5zm-.034 0h-.034v2.5h.034v-2.5zm-.034 0h-.035v2.5h.035v-2.5zm-.035 0h-.034v2.5h.034v-2.5zm-.034 0h-.034v2.5h.034v-2.5zm-.034 0h-.034v2.5h.034v-2.5zm-.034 0h-.034v2.5h.034v-2.5zm-.034 0h-.034v2.5h.034v-2.5zm-.034 0h-.034v2.5h.034v-2.5zm-.034 0h-.034v2.5h.034v-2.5zm-.034 0h-.034v2.5h.034v-2.5zm-.034 0h-.034v2.5h.034v-2.5zm-.034 0h-.033v2.5h.033v-2.5zm-.033 0h-.034v2.5h.034v-2.5zm-.034 0h-.034v2.5h.034v-2.5zm-.034 0h-.033v2.5h.033v-2.5zm-.033 0h-.034v2.5h.034v-2.5zm-.034 0h-.033v2.5h.033v-2.5zm-.033 0h-.034v2.5h.034v-2.5zm-.034 0h-.033v2.5h.033v-2.5zm-.033 0h-.033v2.5h.033v-2.5zm-.033 0h-.033v2.5h.033v-2.5zm-.033 0h-.034v2.5h.034v-2.5zm-.034 0h-.033v2.5h.033v-2.5zm-.033 0h-.033v2.5h.033v-2.5zm-.033 0h-.033v2.5h.033v-2.5zm-.033 0h-.032v2.5h.032v-2.5zm-.032 0h-.033v2.5h.032v-2.5zm-.033 0h-.033v2.5h.033v-2.5zm-.033 0h-.033v2.5h.033v-2.5zm-.033 0h-.032v2.5h.032v-2.5zm-.032 0h-.033v2.5h.032v-2.5zm-.033 0h-.033v2.5h.033v-2.5zm-.033 0h-.032v2.5h.032v-2.5zm-.032 0h-.032v2.5h.032v-2.5zm-.032 0h-.033v2.5h.033v-2.5zm-.033 0H61.9v2.5h.032v-2.5zm-.032 0h-.032v2.5h.032v-2.5zm-.032 0h-.032v2.5h.032v-2.5zm-.032 0h-.033v2.5h.032v-2.5zm-.033 0h-.032v2.5h.032v-2.5zm-.032 0h-.032v2.5h.032v-2.5zm-.032 0h-.032v2.5h.032v-2.5zm-.032 0h-.031v2.5h.032v-2.5zm-.031 0h-.032v2.5h.032v-2.5zm-.032 0h-.032v2.5h.032v-2.5zm-.032 0h-.031v2.5h.031v-2.5zm-.031 0h-.032v2.5h.032v-2.5zm-.032 0h-.032v2.5h.032v-2.5zm-.032 0h-.031v2.5h.031v-2.5zm-.031 0h-.032v2.5h.032v-2.5zm-.032 0h-.03v2.5h.03v-2.5zm-.03 0h-.032v2.5h.031v-2.5zm-.032 0h-.031v2.5h.031v-2.5zm-.031 0h-.031v2.5h.03v-2.5zm-.031 0h-.031v2.5h.03v-2.5zm-.031 0h-.031v2.5h.03v-2.5zm-.031 0h-.031v2.5h.03v-2.5zm-.031 0h-.031v2.5h.03v-2.5zm-.031 0h-.031v2.5h.03v-2.5zm-.031 0h-.03v2.5h.03v-2.5zm-.03 0h-.031v2.5h.03v-2.5zm-.031 0h-.03v2.5h.03v-2.5zm-.03 0h-.031v2.5h.03v-2.5zm-.031 0h-.03v2.5h.03v-2.5zm-.03 0h-.031v2.5h.03v-2.5zm-.031 0h-.03v2.5h.03v-2.5zm-.03 0h-.03v2.5h.03v-2.5zm-.03 0H60.9v2.5h.03v-2.5zm-.031 0h-.03v2.5h.03v-2.5zm-.03 0h-.03v2.5h.03v-2.5zm-.03 0h-.03v2.5h.03v-2.5zm-.03 0h-.03v2.5h.03v-2.5zm-.03 0h-.03v2.5h.03v-2.5zm-.03 0h-.03v2.5h.03v-2.5zm-.03 0h-.03v2.5h.03v-2.5zm-.03 0h-.029v2.5h.03v-2.5zm-.029 0h-.03v2.5h.03v-2.5zm-.03 0h-.029v2.5h.03v-2.5zm-.029 0h-.03v2.5h.03v-2.5zm-.03 0h-.029v2.5h.03v-2.5zm-.029 0h-.029v2.5h.03v-2.5zm-.029 0h-.029v2.5h.03v-2.5zm-.029 0h-.029v2.5h.03v-2.5zm-.029 0h-.029v2.5h.029v-2.5zm-.029 0h-.029v2.5h.029v-2.5zm-.029 0h-.029v2.5h.03v-2.5zm-.029 0h-.029v2.5h.03v-2.5zm-.029 0h-.028v2.5h.028v-2.5zm-.028 0h-.029v2.5h.029v-2.5zm-.029 0h-.029v2.5h.029v-2.5zm-.029 0h-.028v2.5h.028v-2.5zm-.028 0h-.029v2.5h.029v-2.5zm-.029 0h-.028v2.5h.029v-2.5zm-.028 0h-.028v2.5h.028v-2.5zm-.028 0h-.028v2.5h.028v-2.5zm-.028 0h-.029v2.5h.029v-2.5zm-.029 0h-.028v2.5h.029v-2.5zm-.028 0h-.027v2.5h.027v-2.5zm-.027 0H60v2.5h.028v-2.5zm-.028 0h-.028v2.5H60v-2.5zm-.028 0h-.028v2.5h.028v-2.5zm-.028 0h-.028v2.5h.028v-2.5zm-.028 0h-.027v2.5h.027v-2.5zm-.027 0h-.028v2.5h.028v-2.5zm-.028 0h-.027v2.5h.027v-2.5zm-.027 0h-.028v2.5h.028v-2.5zm-.028 0h-.027v2.5h.027v-2.5zm-.027 0h-.027v2.5h.027v-2.5zm-.027 0h-.027v2.5h.027v-2.5zm-.027 0h-.027v2.5h.027v-2.5zm-.027 0h-.027v2.5h.027v-2.5zm-.027 0h-.027v2.5h.027v-2.5zm-.027 0h-.027v2.5h.027v-2.5zm-.027 0h-.027v2.5h.027v-2.5zm-.027 0h-.026v2.5h.026v-2.5zm-.026 0h-.027v2.5h.027v-2.5zm-.027 0h-.026v2.5h.026v-2.5zm-.026 0h-.027v2.5h.027v-2.5zm-.027 0h-.026v2.5h.026v-2.5zm-.026 0h-.026v2.5h.026v-2.5zm-.026 0h-.026v2.5h.026v-2.5zm-.026 0h-.026v2.5h.026v-2.5zm-.026 0h-.026v2.5h.026v-2.5zm-.026 0h-.026v2.5h.026v-2.5zm-.026 0h-.026v2.5h.026v-2.5zm-.026 0h-.026v2.5h.026v-2.5zm-.026 0h-.026v2.5h.026v-2.5zm-.026 0h-.025v2.5h.025v-2.5zm-.025 0H59.2v2.5h.026v-2.5zm-.026 0h-.025v2.5h.025v-2.5zm-.025 0h-.025v2.5h.025v-2.5zm-.025 0h-.026v2.5h.026v-2.5zm-.026 0H59.1v2.5h.025v-2.5zm-.025 0h-.025v2.5h.025v-2.5zm-.025 0h-.025v2.5h.025v-2.5zm-.025 0h-.025v2.5h.025v-2.5zm-.025 0H59v2.5h.025v-2.5zm-.025 0h-.025v2.5H59v-2.5zm-.025 0h-.024v2.5h.024v-2.5zm-.024 0h-.025v2.5h.025v-2.5zm-.025 0h-.024v2.5h.024v-2.5zm-.024 0h-.025v2.5h.025v-2.5zm-.025 0h-.024v2.5h.024v-2.5zm-.024 0h-.024v2.5h.024v-2.5zm-.024 0h-.024v2.5h.024v-2.5zm-.024 0h-.024v2.5h.024v-2.5zm-.024 0h-.024v2.5h.024v-2.5zm-.024 0h-.024v2.5h.024v-2.5zm-.024 0h-.024v2.5h.024v-2.5zm-.024 0h-.024v2.5h.024v-2.5zm-.024 0h-.023v2.5h.023v-2.5zm-.023 0h-.024v2.5h.024v-2.5zm-.024 0h-.023v2.5h.023v-2.5zm-.023 0h-.024v2.5h.024v-2.5zm-.024 0h-.023v2.5h.023v-2.5zm-.023 0h-.023v2.5h.023v-2.5zm-.023 0h-.023v2.5h.023v-2.5zm-.023 0h-.023v2.5h.023v-2.5zm-.023 0h-.023v2.5h.023v-2.5zm-.023 0h-.023v2.5h.023v-2.5zm-.023 0h-.023v2.5h.023v-2.5zm-.023 0h-.022v2.5h.022v-2.5zm-.022 0h-.023v2.5h.023v-2.5zm-.023 0h-.022v2.5h.022v-2.5zm-.022 0h-.023v2.5h.023v-2.5zm-.023 0h-.022v2.5h.023v-2.5zm-.022 0h-.022v2.5h.022v-2.5zm-.022 0h-.022v2.5h.022v-2.5zm-.022 0h-.022v2.5h.022v-2.5zm-.022 0h-.022v2.5h.022v-2.5zm-.022 0h-.022v2.5h.022v-2.5zm-.022 0h-.022v2.5h.022v-2.5zm-.022 0h-.021v2.5h.021v-2.5zm-.021 0h-.022v2.5h.022v-2.5zm-.022 0h-.021v2.5h.021v-2.5zm-.021 0H58.1v2.5h.02v-2.5zm-.021 0h-.022v2.5h.022v-2.5zm-.022 0h-.02v2.5h.02v-2.5zm-.02 0h-.022v2.5h.021v-2.5zm-.022 0h-.02v2.5h.02v-2.5zm-.02 0h-.022v2.5h.021v-2.5zm-.022 0h-.02v2.5h.02v-2.5zm-.02 0h-.021v2.5h.02v-2.5zm-.021 0h-.02v2.5h.02v-2.5zm-.02 0h-.021v2.5h.02v-2.5zm-.021 0h-.02v2.5h.02v-2.5zm-.02 0h-.02v2.5h.02v-2.5zm-.02 0h-.021v2.5h.02v-2.5zm-.021 0h-.02v2.5h.02v-2.5zm-.02 0h-.02v2.5h.02v-2.5zm-.02 0h-.02v2.5h.02v-2.5zm-.02 0h-.02v2.5h.02v-2.5zm-.02 0h-.02v2.5h.02v-2.5zm-.02 0h-.02v2.5h.02v-2.5zm-.02 0h-.019v2.5h.02v-2.5zm-.019 0h-.02v2.5h.02v-2.5zm-.02 0h-.019v2.5h.02v-2.5zm-.019 0h-.019v2.5h.02v-2.5zm-.019 0h-.019v2.5h.02v-2.5zm-.019 0h-.019v2.5h.02v-2.5zm-.019 0h-.019v2.5h.019v-2.5zm-.019 0h-.019v2.5h.02v-2.5zm-.019 0h-.019v2.5h.02v-2.5zm-.019 0h-.018v2.5h.019v-2.5zm-.018 0h-.019v2.5h.019v-2.5zm-.019 0h-.018v2.5h.018v-2.5zm-.018 0h-.018v2.5h.018v-2.5zm-.018 0h-.019v2.5h.019v-2.5zm-.019 0h-.018v2.5h.018v-2.5zm-.018 0h-.018v2.5h.018v-2.5zm-.018 0h-.018v2.5h.018v-2.5zm-.018 0h-.017v2.5h.017v-2.5zm-.017 0h-.018v2.5h.017v-2.5zm-.018 0h-.018v2.5h.018v-2.5zm-.018 0h-.017v2.5h.017v-2.5zm-.017 0h-.018v2.5h.018v-2.5zm-.018 0h-.017v2.5h.017v-2.5zm-.017 0h-.017v2.5h.017v-2.5zm-.017 0h-.017v2.5h.017v-2.5zm-.017 0h-.017v2.5h.017v-2.5zm-.017 0h-.017v2.5h.017v-2.5zm-.017 0h-.017v2.5h.017v-2.5zm-.017 0h-.017v2.5h.017v-2.5zm-.017 0h-.016v2.5h.016v-2.5zm-.016 0h-.017v2.5h.017v-2.5zm-.017 0h-.016v2.5h.016v-2.5zm-.016 0h-.016v2.5h.016v-2.5zm-.016 0h-.017v2.5h.017v-2.5zm-.017 0h-.016v2.5h.016v-2.5zm-.016 0h-.016v2.5h.016v-2.5zm-.016 0h-.016v2.5h.016v-2.5zm-.016 0h-.015v2.5h.015v-2.5zm-.015 0h-.016v2.5h.016v-2.5zm-.016 0h-.016v2.5h.016v-2.5zm-.016 0h-.015v2.5h.015v-2.5zm-.015 0H57v2.5h.015v-2.5zm-.015 0h-.015v2.5h.015v-2.5zm-.015 0h-.016v2.5h.016v-2.5zm-.016 0h-.015v2.5h.015v-2.5zm-.015 0h-.014v2.5h.014v-2.5zm-.014 0h-.015v2.5h.015v-2.5zm-.015 0h-.015v2.5h.015v-2.5zm-.015 0h-.014v2.5h.014v-2.5zm-.014 0h-.015v2.5h.014v-2.5zm-.015 0h-.014v2.5h.014v-2.5zm-.014 0h-.014v2.5h.014v-2.5zm-.014 0h-.015v2.5h.014v-2.5zm-.015 0h-.014v2.5h.014v-2.5zm-.014 0h-.014v2.5h.014v-2.5zm-.014 0h-.013v2.5h.013v-2.5zm-.013 0h-.014v2.5h.014v-2.5zm-.014 0h-.014v2.5h.014v-2.5zm-.014 0h-.013v2.5h.013v-2.5zm-.013 0h-.013v2.5h.013v-2.5zm-.013 0h-.014v2.5h.014v-2.5zm-.014 0h-.013v2.5h.013v-2.5zm-.013 0h-.013v2.5h.013v-2.5zm-.013 0h-.013v2.5h.013v-2.5zm-.013 0h-.013v2.5h.013v-2.5zm-.013 0h-.012v2.5h.012v-2.5zm-.012 0h-.013v2.5h.013v-2.5zm-.013 0h-.012v2.5h.012v-2.5zm-.012 0h-.013v2.5h.013v-2.5zm-.013 0h-.012v2.5h.012v-2.5zm-.012 0h-.012v2.5h.012v-2.5zm-.012 0h-.012v2.5h.012v-2.5zm-.012 0h-.012v2.5h.012v-2.5zm-.012 0h-.012v2.5h.012v-2.5zm-.012 0h-.011v2.5h.011v-2.5zm-.011 0h-.012v2.5h.012v-2.5zm-.012 0h-.011v2.5h.011v-2.5zm-.011 0h-.012v2.5h.012v-2.5zm-.012 0h-.01v2.5h.01v-2.5zm-.01 0h-.012v2.5h.011v-2.5zm-.012 0h-.01v2.5h.01v-2.5zm-.01 0h-.012v2.5h.011v-2.5zm-.012 0h-.01v2.5h.01v-2.5zm-.01 0h-.011v2.5h.01v-2.5zm-.011 0h-.01v2.5h.01v-2.5zm-.01 0h-.011v2.5h.01v-2.5zm-.011 0h-.01v2.5h.01v-2.5zm-.01 0h-.01v2.5h.01v-2.5zm-.01 0h-.01v2.5h.01v-2.5zm-.01 0h-.01v2.5h.01v-2.5zm-.01 0h-.01v2.5h.01v-2.5zm-.01 0h-.01v2.5h.01v-2.5zm-.01 0h-.01v2.5h.01v-2.5zm-.01 0h-.009v2.5h.01v-2.5zm-.009 0h-.01v2.5h.01v-2.5zm-.01 0h-.008v2.5h.009v-2.5zm-.008 0h-.01v2.5h.01v-2.5zm-.01 0h-.009v2.5h.01v-2.5zm-.009 0h-.008v2.5h.008v-2.5zm-.008 0h-.01v2.5h.01v-2.5zm-.01 0h-.008v2.5h.009v-2.5zm-.008 0h-.008v2.5h.008v-2.5zm-.008 0h-.009v2.5h.009v-2.5zm-.009 0h-.008v2.5h.008v-2.5zm-.008 0h-.008v2.5h.008v-2.5zm-.008 0h-.008v2.5h.008v-2.5zm-.008 0h-.008v2.5h.008v-2.5zm-.008 0h-.008v2.5h.008v-2.5zm-.008 0h-.007v2.5h.007v-2.5zm-.007 0h-.008v2.5h.008v-2.5zm-.008 0h-.007v2.5h.007v-2.5zm-.007 0h-.008v2.5h.008v-2.5zm-.008 0h-.007v2.5h.007v-2.5zm-.007 0h-.007v2.5h.007v-2.5zm-.007 0h-.007v2.5h.007v-2.5zm-.007 0h-.006v2.5h.006v-2.5zm-.006 0h-.007v2.5h.007v-2.5zm-.007 0h-.007v2.5h.007v-2.5zm-.007 0h-.006v2.5h.006v-2.5zm-.006 0h-.006v2.5h.006v-2.5zm-.006 0h-.007v2.5h.007v-2.5zm-.007 0h-.006v2.5h.006v-2.5zm-.006 0h-.006v2.5h.006v-2.5zm-.006 0h-.005v2.5h.005v-2.5zm-.005 0h-.006v2.5h.006v-2.5zm-.006 0h-.005v2.5h.005v-2.5zm-.005 0h-.006v2.5h.006v-2.5zm-.006 0h-.005v2.5h.005v-2.5zm-.005 0H56.1v2.5h.005v-2.5zm-.005 0h-.005v2.5h.005v-2.5zm-.005 0h-.005v2.5h.005v-2.5zm-.005 0h-.005v2.5h.005v-2.5zm-.005 0h-.005v2.5h.005v-2.5zm-.005 0h-.004v2.5h.004v-2.5zm-.004 0h-.005v2.5h.005v-2.5zm-.005 0h-.004v2.5h.004v-2.5zm-.004 0h-.004v2.5h.004v-2.5zm-.004 0h-.004v2.5h.004v-2.5zm-.004 0h-.004v2.5h.004v-2.5zm-.004 0h-.004v2.5h.004v-2.5zm-.004 0h-.004v2.5h.004v-2.5zm-.004 0h-.003v2.5h.003v-2.5zm-.003 0h-.003v2.5h.003v-2.5zm-.003 0h-.004v2.5h.004v-2.5zm-.004 0h-.003v2.5h.003v-2.5zm-.003 0h-.003v2.5h.003v-2.5zm-.003 0h-.002v2.5h.002v-2.5zm-.002 0h-.003v2.5h.002v-2.5zm-.003 0h-.003v2.5h.003v-2.5zm-.003 0h-.002v2.5h.002v-2.5zm-.002 0h-.003v2.5h.003v-2.5zm-.003 0h-.002v2.5h.002v-2.5zm-.002 0h-.002v2.5h.002v-2.5zm-.002 0h-.002v2.5h.002v-2.5zm-.002 0h-.002v2.5h.002v-2.5zm-.002 0h-.001v2.5h.001v-2.5zm-.001 0h-.002v2.5h.002v-2.5zm-.002 0h-.001v2.5h.001v-2.5zm-.001 0h-.002v2.5h.002v-2.5zm-.002 0v2.5-2.5zm0 0h-.002v2.5h.001v-2.5zm-.002 0v2.5-2.5zm0 0h-.001v2.5-2.5zm-.001 0v2.5-2.5zm0 0H56v2.5-2.5zm-.001 0v2.5-2.5zm0 0v2.5-2.5zM54.75 59l-.001 1.25h2.5V59h-2.5z" fill="#75A4FE"/>
  <path d="M56.933 6.721L56 7.553l.933-.832zm11.1 12.453l.933-.832-.933.832zm-.102 1.765l.832.933-.832-.933zm-1.764-.101l-.934.831.933-.831zm-11.1-12.454L56 7.553l-.933.831zM108.93 6.62l.832-.934-.832.934zm-1.765.101l-.933-.832.933.832zm1.867 1.663l.933.832-.933-.832zm-11.1 12.454l.933.831-.933-.831zm-1.765.101l-.831.933.831-.933zm-.101-1.765l-.933-.832.933.832zM84.6 3.25a2.5 2.5 0 00-2.5-2.5v2.5h2.5zm0 16.756V3.25h-2.5v16.756h2.5zm-2.5 2.5a2.5 2.5 0 002.5-2.5h-2.5v2.5zm-2.5-2.5a2.5 2.5 0 002.5 2.5v-2.5h-2.5zm0-16.756v16.756h2.5V3.25h-2.5zm2.5-2.5a2.5 2.5 0 00-2.5 2.5h2.5V.75zM57.866 5.89a2.5 2.5 0 00-3.53-.204L56 7.553l1.866-1.664zm11.1 12.452L57.866 5.89 56 7.553l11.1 12.453 1.866-1.664zm-.203 3.53a2.5 2.5 0 00.203-3.53L67.1 20.006l1.663 1.866zm-3.53-.203a2.5 2.5 0 003.53.203L67.1 20.006l-1.867 1.663zm-11.1-12.453l11.1 12.453 1.867-1.663L56 7.553l-1.866 1.663zm.204-3.53a2.5 2.5 0 00-.203 3.53L56 7.553l-1.663-1.867zm55.426 0a2.5 2.5 0 00-3.53.203l1.867 1.664 1.663-1.867zm.203 3.53a2.5 2.5 0 00-.203-3.53L108.1 7.553l1.866 1.663zm-11.1 12.453l11.1-12.453-1.866-1.663L97 20.006l1.866 1.663zm-3.53.203a2.5 2.5 0 003.53-.203L97 20.006l-1.663 1.866zm-.202-3.53a2.5 2.5 0 00.203 3.53L97 20.006l-1.866-1.664zM106.233 5.89l-11.1 12.453L97 20.006l11.1-12.453-1.867-1.664z" fill="#A4C3FE"/>
</svg>
